<svg width="21" height="22" viewBox="0 0 21 22" fill="none" xmlns="http://www.w3.org/2000/svg">
<path d="M10.5 0C4.7019 0 0 4.9258 0 11C0 17.0742 4.7019 22 10.5 22C16.2981 22 21 17.0742 21 11C21 4.9258 16.2981 0 10.5 0ZM7.44882 16.6289H4.89159V8.56908H7.44882V16.6289ZM6.17029 7.46851H6.15363C5.2955 7.46851 4.74051 6.84966 4.74051 6.07622C4.74051 5.28532 5.31248 4.68359 6.18727 4.68359C7.06206 4.68359 7.60039 5.28532 7.61705 6.07622C7.61705 6.84966 7.06206 7.46851 6.17029 7.46851ZM16.6696 16.6289H14.1127V12.3171C14.1127 11.2335 13.7425 10.4944 12.8172 10.4944C12.1108 10.4944 11.6901 10.993 11.5052 11.4742C11.4376 11.6464 11.4211 11.8871 11.4211 12.1279V16.6289H8.86402C8.86402 16.6289 8.89751 9.32523 8.86402 8.56908H11.4211V9.71027C11.7609 9.16107 12.3689 8.37991 13.7257 8.37991C15.4081 8.37991 16.6696 9.53185 16.6696 12.0074V16.6289Z" fill="#032FF2"/>
</svg>
