<svg width="20" height="16" viewBox="0 0 20 16" fill="none" xmlns="http://www.w3.org/2000/svg">
<path d="M19.2308 1.84976C18.5156 2.16346 17.7536 2.37139 16.9591 2.47236C17.7764 1.98438 18.4002 1.21755 18.6935 0.293269C17.9315 0.747596 17.0901 1.06851 16.1935 1.2476C15.47 0.477164 14.4387 0 13.3137 0C11.131 0 9.3738 1.77163 9.3738 3.94351C9.3738 4.25601 9.40024 4.55649 9.46515 4.84255C6.1875 4.68269 3.28726 3.11178 1.33894 0.71875C0.998798 1.30889 0.799279 1.98438 0.799279 2.71154C0.799279 4.07692 1.5024 5.28726 2.55048 5.98798C1.91707 5.97596 1.29567 5.79207 0.769231 5.5024C0.769231 5.51442 0.769231 5.53005 0.769231 5.54567C0.769231 7.46154 2.13582 9.05289 3.92788 9.41947C3.60697 9.50721 3.25721 9.54928 2.89423 9.54928C2.64183 9.54928 2.38702 9.53486 2.14784 9.48197C2.65865 11.0433 4.10817 12.1911 5.83173 12.2284C4.49039 13.2776 2.78726 13.9099 0.94351 13.9099C0.620192 13.9099 0.310096 13.8954 0 13.8558C1.74639 14.982 3.81611 15.625 6.04808 15.625C13.3029 15.625 17.2692 9.61539 17.2692 4.40625C17.2692 4.23197 17.2632 4.0637 17.2548 3.89663C18.0373 3.34135 18.6947 2.64784 19.2308 1.84976Z" fill="#032FF2"/>
</svg>
